<svg xmlns="http://www.w3.org/2000/svg" xmlns:xlink="http://www.w3.org/1999/xlink" width="2380" zoomAndPan="magnify" viewBox="0 0 1784.88 1784.99993" height="2380" preserveAspectRatio="xMidYMid meet" version="1.0"><defs><clipPath id="646387f9ff"><path d="M 0 0.0585938 L 1784.761719 0.0585938 L 1784.761719 1784.9375 L 0 1784.9375 Z M 0 0.0585938 " clip-rule="nonzero"/></clipPath><clipPath id="e360176ec0"><path d="M 145 145 L 1640 145 L 1640 1640 L 145 1640 Z M 145 145 " clip-rule="nonzero"/></clipPath><clipPath id="27b77ae4fd"><path d="M 859.839844 -569 L 2353.78125 924.941406 L 925.070312 2353.648438 L -568.867188 859.710938 Z M 859.839844 -569 " clip-rule="nonzero"/></clipPath><clipPath id="05cc42bfed"><path d="M 859.839844 -569 L 2353.78125 924.941406 L 925.070312 2353.648438 L -568.867188 859.710938 Z M 859.839844 -569 " clip-rule="nonzero"/></clipPath><clipPath id="65c42bd792"><rect x="0" width="1785" y="0" height="1785"/></clipPath></defs><g clip-path="url(#646387f9ff)"><g transform="matrix(1, 0, 0, 1, 0, -0.000000000000097387)"><g clip-path="url(#65c42bd792)"><g clip-path="url(#e360176ec0)"><g clip-path="url(#27b77ae4fd)"><g clip-path="url(#05cc42bfed)"><path fill="#ffffff" d="M 1639.425781 1639.382812 C 933.832031 1026.261719 857.113281 1024.511719 178.828125 1606 C 760.3125 927.710938 758.5625 850.992188 145.441406 145.398438 C 851.035156 758.519531 927.753906 760.269531 1606.039062 178.785156 C 1024.550781 857.070312 1026.304688 933.789062 1639.425781 1639.382812 Z M 1639.425781 1639.382812 " fill-opacity="1" fill-rule="nonzero"/></g></g></g></g></g></g></svg>