<svg xmlns="http://www.w3.org/2000/svg" xmlns:xlink="http://www.w3.org/1999/xlink" width="3780" zoomAndPan="magnify" viewBox="0 0 2835 1417.499962" height="1890" preserveAspectRatio="xMidYMid meet" version="1.0"><defs><g/><clipPath id="c57c2a171e"><path d="M 0.9375 0.101562 L 2801.949219 0.101562 L 2801.949219 1100.832031 L 0.9375 1100.832031 Z M 0.9375 0.101562 " clip-rule="nonzero"/></clipPath><clipPath id="a0b10a1808"><path d="M 0.9375 97 L 2801.949219 97 L 2801.949219 1100.832031 L 0.9375 1100.832031 Z M 0.9375 97 " clip-rule="nonzero"/></clipPath><clipPath id="1f098225ff"><rect x="0" width="2802" y="0" height="1004"/></clipPath><clipPath id="9481aeaf87"><path d="M 2026.875 119.554688 L 2272.976562 119.554688 L 2272.976562 365.65625 L 2026.875 365.65625 Z M 2026.875 119.554688 " clip-rule="nonzero"/></clipPath><clipPath id="d91b7ad4c4"><path d="M 2017 125 L 2280 125 L 2280 388 L 2017 388 Z M 2017 125 " clip-rule="nonzero"/></clipPath><clipPath id="caec45422c"><path d="M 2143.21875 0.0390625 L 2405.339844 262.160156 L 2155.183594 512.316406 L 1893.0625 250.195312 Z M 2143.21875 0.0390625 " clip-rule="nonzero"/></clipPath><clipPath id="7cf6d4e5aa"><path d="M 2143.21875 0.0390625 L 2405.339844 262.160156 L 2155.183594 512.316406 L 1893.0625 250.195312 Z M 2143.21875 0.0390625 " clip-rule="nonzero"/></clipPath><clipPath id="7aae9e1551"><rect x="0" width="2802" y="0" height="1101"/></clipPath><clipPath id="61d69e1d04"><rect x="0" width="2802" y="0" height="1101"/></clipPath></defs><g transform="matrix(1, 0, 0, 1, 7, 170)"><g clip-path="url(#61d69e1d04)"><g clip-path="url(#c57c2a171e)"><g transform="matrix(1, 0, 0, 1, -0.000000000000002665, -0.000000000000028422)"><g clip-path="url(#7aae9e1551)"><g clip-path="url(#a0b10a1808)"><g transform="matrix(1, 0, 0, 1, -0.000000000000002665, 97)"><g clip-path="url(#1f098225ff)"><g fill="#ffffff" fill-opacity="1"><g transform="translate(27.150688, 723.098753)"><g><path d="M 254.75 0 L -22.4375 -660.890625 L 147.390625 -660.890625 L 314.015625 -226.703125 L 480.640625 -660.890625 L 650.46875 -660.890625 L 373.296875 0 Z M 254.75 0 "/></g></g></g><g fill="#ffffff" fill-opacity="1"><g transform="translate(599.114337, 723.098753)"><g><path d="M 463.828125 -185.84375 L 165.828125 -185.84375 C 165.828125 -157.007812 175.171875 -135.648438 193.859375 -121.765625 C 212.554688 -107.878906 232.851562 -100.9375 254.75 -100.9375 C 277.707031 -100.9375 295.863281 -104.003906 309.21875 -110.140625 C 322.570312 -116.285156 337.789062 -128.4375 354.875 -146.59375 L 457.421875 -95.328125 C 414.691406 -23.765625 343.660156 12.015625 244.328125 12.015625 C 182.378906 12.015625 129.238281 -9.210938 84.90625 -51.671875 C 40.582031 -94.128906 18.421875 -145.265625 18.421875 -205.078125 C 18.421875 -264.890625 40.582031 -316.15625 84.90625 -358.875 C 129.238281 -401.601562 182.378906 -422.96875 244.328125 -422.96875 C 309.484375 -422.96875 362.488281 -404.140625 403.34375 -366.484375 C 444.195312 -328.835938 464.625 -275.035156 464.625 -205.078125 C 464.625 -195.460938 464.359375 -189.050781 463.828125 -185.84375 Z M 169.828125 -264.359375 L 326.03125 -264.359375 C 322.832031 -285.722656 314.421875 -302.144531 300.796875 -313.625 C 287.179688 -325.101562 269.691406 -330.84375 248.328125 -330.84375 C 224.835938 -330.84375 206.148438 -324.703125 192.265625 -312.421875 C 178.378906 -300.140625 170.898438 -284.117188 169.828125 -264.359375 Z M 169.828125 -264.359375 "/></g></g></g><g fill="#ffffff" fill-opacity="1"><g transform="translate(1080.557264, 723.098753)"><g><path d="M 48.0625 0 L 48.0625 -688.921875 L 189.859375 -688.921875 L 189.859375 0 Z M 48.0625 0 "/></g></g></g><g fill="#ffffff" fill-opacity="1"><g transform="translate(1318.474905, 723.098753)"><g><path d="M 72.09375 -410.953125 L 72.09375 -563.953125 L 213.890625 -563.953125 L 213.890625 -410.953125 L 300.40625 -410.953125 L 300.40625 -302.8125 L 213.890625 -302.8125 L 213.890625 -172.234375 C 213.890625 -134.316406 224.570312 -115.359375 245.9375 -115.359375 C 251.269531 -115.359375 256.875 -116.425781 262.75 -118.5625 C 268.625 -120.695312 273.164062 -122.832031 276.375 -124.96875 L 281.171875 -128.171875 L 316.421875 -13.625 C 285.984375 3.46875 251.269531 12.015625 212.28125 12.015625 C 185.582031 12.015625 162.617188 7.34375 143.390625 -2 C 124.160156 -11.34375 109.609375 -23.890625 99.734375 -39.640625 C 89.859375 -55.398438 82.78125 -71.957031 78.5 -89.3125 C 74.226562 -106.675781 72.09375 -125.238281 72.09375 -145 L 72.09375 -302.8125 L 12.8125 -302.8125 L 12.8125 -410.953125 Z M 72.09375 -410.953125 "/></g></g></g><g fill="#ffffff" fill-opacity="1"><g transform="translate(1634.897405, 723.098753)"><g><path d="M 48.0625 0 L 48.0625 -410.953125 L 189.859375 -410.953125 L 189.859375 -351.671875 L 191.453125 -351.671875 C 192.523438 -353.804688 194.257812 -356.472656 196.65625 -359.671875 C 199.0625 -362.878906 204.269531 -368.488281 212.28125 -376.5 C 220.289062 -384.507812 228.832031 -391.71875 237.90625 -398.125 C 246.988281 -404.539062 258.738281 -410.285156 273.15625 -415.359375 C 287.582031 -420.429688 302.273438 -422.96875 317.234375 -422.96875 C 332.710938 -422.96875 347.925781 -420.832031 362.875 -416.5625 C 377.832031 -412.289062 388.785156 -408.019531 395.734375 -403.75 L 406.953125 -397.328125 L 347.671875 -277.171875 C 330.046875 -292.128906 305.476562 -299.609375 273.96875 -299.609375 C 256.875 -299.609375 242.1875 -295.867188 229.90625 -288.390625 C 217.625 -280.910156 208.945312 -271.828125 203.875 -261.140625 C 198.800781 -250.460938 195.195312 -241.382812 193.0625 -233.90625 C 190.925781 -226.4375 189.859375 -220.566406 189.859375 -216.296875 L 189.859375 0 Z M 48.0625 0 "/></g></g></g><g fill="#ffffff" fill-opacity="1"><g transform="translate(2033.830059, 723.098753)"><g><path d="M 61.671875 -640.0625 C 78.234375 -656.613281 97.992188 -664.890625 120.953125 -664.890625 C 143.921875 -664.890625 163.679688 -656.613281 180.234375 -640.0625 C 196.796875 -623.507812 205.078125 -603.75 205.078125 -580.78125 C 205.078125 -557.8125 196.796875 -538.050781 180.234375 -521.5 C 163.679688 -504.945312 143.921875 -496.671875 120.953125 -496.671875 C 97.992188 -496.671875 78.234375 -504.945312 61.671875 -521.5 C 45.117188 -538.050781 36.84375 -557.8125 36.84375 -580.78125 C 36.84375 -603.75 45.117188 -623.507812 61.671875 -640.0625 Z M 48.0625 -410.953125 L 48.0625 0 L 189.859375 0 L 189.859375 -410.953125 Z M 48.0625 -410.953125 "/></g></g></g><g fill="#ffffff" fill-opacity="1"><g transform="translate(2275.753253, 723.098753)"><g><path d="M 523.90625 0 L 352.46875 0 L 261.953125 -116.15625 L 171.4375 0 L 0 0 L 175.4375 -214.6875 L 24.828125 -410.953125 L 190.65625 -410.953125 L 261.953125 -315.625 L 333.25 -410.953125 L 499.078125 -410.953125 L 348.46875 -214.6875 Z M 523.90625 0 "/></g></g></g></g></g></g><path fill="#000000" d="M 2030.714844 123.394531 L 2268.894531 123.394531 L 2268.894531 361.574219 L 2030.714844 361.574219 Z M 2030.714844 123.394531 " fill-opacity="1" fill-rule="nonzero"/><g clip-path="url(#9481aeaf87)"><path fill="#000000" d="M 2026.875 119.554688 L 2026.875 365.417969 L 2272.738281 365.417969 L 2272.738281 119.554688 Z M 2265.054688 357.734375 L 2034.558594 357.734375 L 2034.558594 127.238281 L 2265.054688 127.238281 Z M 2265.054688 357.734375 " fill-opacity="1" fill-rule="nonzero"/></g><g clip-path="url(#d91b7ad4c4)"><g clip-path="url(#caec45422c)"><g clip-path="url(#7cf6d4e5aa)"><path fill="#ffffff" d="M 2279.945312 387.34375 C 2156.199219 279.816406 2142.742188 279.507812 2023.785156 381.492188 C 2125.765625 262.53125 2125.457031 249.078125 2017.929688 125.332031 C 2141.675781 232.859375 2155.132812 233.167969 2274.089844 131.183594 C 2172.109375 250.144531 2172.414062 263.597656 2279.945312 387.34375 Z M 2279.945312 387.34375 " fill-opacity="1" fill-rule="nonzero"/></g></g></g></g></g></g></g></g></svg>